<svg xmlns="http://www.w3.org/2000/svg" enable-background="new 0 0 510 510" viewBox="0 0 510 510">
  <path fill="currentColor" d="M500,110h-30.024c-0.019,0-0.038,0-0.056,0H450c-19.299,0-35,15.701-35,35v220c0,8.272-6.729,15-15,15
			c-8.272,0-15-6.728-15-15v-35c0-21.376-14.986-39.305-35-43.866V200H40v190h310v-82.906c8.82,3.866,15,12.676,15,22.906v35
			c0,19.299,15.701,35,35,35s35-15.701,35-35V183.673l26.414-3.773c4.197-0.6,7.56-3.781,8.392-7.938L478.198,130H500
			c5.522,0,10-4.477,10-10S505.522,110,500,110z M197.941,365c-25.948,0-47.059-21.11-47.059-47.059
			c0-22.755,32.634-65.714,39.176-74.095c1.895-2.428,4.803-3.847,7.883-3.847c3.08,0,5.988,1.419,7.883,3.847
			c6.542,8.381,39.176,51.34,39.176,74.095C245,343.89,223.89,365,197.941,365z M451.582,161.101L435,163.47V145
			c0-8.271,6.728-15,15-15h7.802L451.582,161.101z" />
  <path fill="currentColor" d="M170.882 317.941c0 14.92 12.139 27.059 27.059 27.059 14.92 0 27.059-12.139 27.059-27.059 0-9.706-14.005-32.944-27.059-51.209C184.888 284.997 170.882 308.235 170.882 317.941zM100 130h190V70H100V130zM130 90h130c5.522 0 10 4.477 10 10s-4.478 10-10 10H130c-5.523 0-10-4.477-10-10S124.477 90 130 90z" />
  <path fill="currentColor" d="M350,40.5C350,18.169,331.832,0,309.5,0h-229C58.168,0,40,18.169,40,40.5V180h310V40.5z M310,140
			c0,5.523-4.478,10-10,10H90c-5.523,0-10-4.477-10-10V60c0-5.523,4.477-10,10-10h210c5.522,0,10,4.477,10,10V140z" />
  <rect fill="currentColor" width="310" height="25" x="40" y="410" />
  <path fill="currentColor" d="M374.365,455H15.635C7.118,455,0,461.816,0,470.333c0,0.055,0,0.111,0,0.167V500c0,5.523,4.477,10,10,10
			h370c5.523,0,10-4.477,10-10v-29.5c0-0.056,0-0.111,0-0.167C389.96,461.816,382.882,455,374.365,455z" />
</svg>
